#!OML:ASF H:\ManfredETheater\Project 1\Capture day 1\Session 1\subject.ASF
:FULLY-SPECIFIED
:DEGREES
324
root -2.66293 16.3315 -48.1194 202.291 1.13271 -183.016
lowerback 21.3592 -2.41533 0.431971
upperback 1.28571 -2.58438 1.42975
thorax -10.5142 -1.05622 2.07844
lowerneck -16.8655 -2.07136 -2.16687
upperneck -2.23485 -1.79316 1.82888
head 2.23297 -0.554189 0.859565
rclavicle 4.79071e-014 4.37326e-015
rhumerus -64.6212 -8.14157 -77.6449
rradius 76.2896
rwrist -13.6052
rhand -29.5368 -4.00106
rfingers 7.12502
rthumb -2.87012 -33.9615
lclavicle 4.79071e-014 4.37326e-015
lhumerus -30.6154 -17.1838 93.5711
lradius 96.6036
lwrist -4.74125
lhand -32.3042 -9.86217
lfingers 7.12502
lthumb -5.54241 20.0454
rfemur -75.9114 -14.5112 32.9878
rtibia 72.0545
rfoot -18.2426 1.08594
rtoes -40.2284
lfemur -5.01483 -6.62075 -13.7675
ltibia 39.6956
lfoot -14.7946 -9.46093
ltoes -25.0469
325
root -2.62021 16.3865 -48.4243 202.731 1.20101 -183.533
lowerback 21.1673 -2.49005 0.518321
upperback 1.15702 -2.69533 1.33125
thorax -10.559 -1.12309 1.95062
lowerneck -16.9151 -2.04621 -2.14172
upperneck -2.27096 -1.7478 1.5741
head 2.22411 -0.538207 0.774934
rclavicle 4.96962e-015 1.31198e-014
rhumerus -64.552 -8.30955 -77.9919
rradius 76.0417
rwrist -13.7645
rhand -29.555 -3.62015
rfingers 7.12502
rthumb -2.88768 -33.5803
lclavicle 4.96962e-015 1.31198e-014
lhumerus -31.3102 -17.9144 93.86
lradius 95.2159
lwrist -5.0661
lhand -31.8149 -10.6501
lfingers 7.12502
lthumb -5.06997 19.2692
rfemur -75.4359 -13.9982 32.4988
rtibia 71.1265
rfoot -16.6838 0.435194
rtoes -38.6613
lfemur -4.46749 -7.19587 -14.4075
ltibia 38.6019
lfoot -11.0357 -9.21273
ltoes -24.8671
326
root -2.57553 16.4366 -48.735 203.133 1.24322 -184.072
lowerback 20.9547 -2.55489 0.608132
upperback 1.0302 -2.79267 1.2314
thorax -10.5911 -1.18392 1.8141
lowerneck -16.9374 -2.05122 -2.20102
upperneck -2.28309 -1.73211 1.36908
head 2.22136 -0.536281 0.719494
rclavicle -8.15017e-015 1.19271e-015
rhumerus -64.3523 -8.44223 -78.3646
rradius 75.6873
rwrist -13.9401
rhand -29.5464 -3.24854
rfingers 7.12502
rthumb -2.87944 -33.2088
lclavicle -8.15017e-015 1.19271e-015
lhumerus -32.016 -18.6606 94.2133
lradius 93.6373
lwrist -5.3376
lhand -31.4277 -11.5556
lfingers 7.12502
lthumb -4.69609 18.3723
rfemur -74.7618 -13.4958 31.8532
rtibia 70.452
rfoot -15.2234 -0.320264
rtoes -36.5067
lfemur -4.03981 -7.82274 -15.0554
ltibia 37.7111
lfoot -7.04486 -8.88739
ltoes -24.3089
327
root -2.52946 16.48 -49.0502 203.499 1.26535 -184.626
lowerback 20.7324 -2.61165 0.693512
upperback 0.907577 -2.87902 1.13834
thorax -10.6132 -1.23906 1.68355
lowerneck -16.9794 -2.07794 -2.3279
upperneck -2.25131 -1.73539 1.19764
head 2.23918 -0.543379 0.685593
rclavicle -2.54444e-014 -1.47101e-014
rhumerus -64.0025 -8.51412 -78.7571
rradius 75.2388
rwrist -14.1138
rhand -29.4901 -2.90587
rfingers 7.12502
rthumb -2.82505 -32.8669
lclavicle -2.54444e-014 -1.47101e-014
lhumerus -32.7242 -19.3707 94.6146
lradius 91.9252
lwrist -5.61459
lhand -31.059 -12.3387
lfingers 7.12502
lthumb -4.34015 17.5969
rfemur -73.9061 -13.005 31.0971
rtibia 70.012
rfoot -14.1005 -1.14208
rtoes -33.9684
lfemur -3.73539 -8.47989 -15.7016
ltibia 37.0445
lfoot -2.9537 -8.50438
ltoes -23.3902
328
root -2.48242 16.5154 -49.3687 203.832 1.25814 -185.164
lowerback 20.5037 -2.66427 0.7983
upperback 0.789242 -2.95267 1.06139
thorax -10.6274 -1.28845 1.55533
lowerneck -17.0302 -2.11823 -2.51687
upperneck -2.19214 -1.74687 1.0617
head 2.26963 -0.553793 0.673616
rclavicle 3.29983e-014 -8.74653e-015
rhumerus -63.5078 -8.51767 -79.1599
rradius 74.7202
rwrist -14.2685
rhand -29.3696 -2.56469
rfingers 7.12502
rthumb -2.70863 -32.5272
lclavicle 3.29983e-014 -8.74653e-015
lhumerus -33.4407 -20.032 95.0648
lradius 90.1117
lwrist -5.82005
lhand -30.7304 -13.0349
lfingers 7.12502
lthumb -4.0228 16.9068
rfemur -72.8824 -12.5219 30.2823
rtibia 69.7559
rfoot -13.4954 -1.99081
rtoes -31.3657
lfemur -3.56455 -9.16236 -16.3106
ltibia 36.6396
lfoot 1.1016 -8.10978
ltoes -21.9974
329
root -2.4356 16.5422 -49.6895 204.117 1.23008 -185.658
lowerback 20.2938 -2.71098 0.945446
upperback 0.680579 -3.00394 1.00618
thorax -10.6429 -1.32792 1.42084
lowerneck -17.0783 -2.17161 -2.74304
upperneck -2.13304 -1.76827 0.945679
head 2.30067 -0.568178 0.673979
rclavicle -5.96354e-015 -1.19271e-015
rhumerus -62.8715 -8.4527 -79.5619
rradius 74.163
rwrist -14.3875
rhand -29.1952 -2.21374
rfingers 7.12502
rthumb -2.54022 -32.1784
lclavicle -5.96354e-015 -1.19271e-015
lhumerus -34.1637 -20.6272 95.5655
lradius 88.239
lwrist -5.89115
lhand -30.4352 -13.6074
lfingers 7.12502
lthumb -3.7377 16.3395
rfemur -71.6897 -12.0448 29.4604
rtibia 69.6318
rfoot -13.5218 -2.86434
rtoes -29.2692
lfemur -3.51273 -9.84251 -16.863
ltibia 36.5377
lfoot 4.9501 -7.75033
ltoes -20.0841
330
root -2.38908 16.5603 -50.0102 204.37 1.18147 -186.133
lowerback 20.0917 -2.46378 1.21335
upperback 0.580008 -3.11344 0.971354
thorax -10.6556 -1.59809 1.29383
lowerneck -17.1975 -2.23092 -2.9369
upperneck -2.05324 -1.79592 0.783514
head 2.35077 -0.586399 0.652897
rclavicle 6.36111e-015 -1.90833e-014
rhumerus -62.0772 -8.32521 -79.9583
rradius 73.5899
rwrist -14.4539
rhand -28.9817 -1.87082
rfingers 7.12502
rthumb -2.334 -31.8378
lclavicle 6.36111e-015 -1.90833e-014
lhumerus -34.8689 -21.1244 96.0989
lradius 86.3187
lwrist -5.88099
lhand -30.1898 -14.121
lfingers 7.12502
lthumb -3.50074 15.83
rfemur -70.3846 -11.582 28.6233
rtibia 69.5972
rfoot -14.1503 -3.80413
rtoes -27.869
lfemur -3.61944 -10.5198 -17.3817
ltibia 36.7901
lfoot 8.50028 -7.45789
ltoes -17.6144
